<svg version="1.1" xmlns="http://www.w3.org/2000/svg" xmlns:xlink="http://www.w3.org/1999/xlink" width="213.5767" height="146.46064" viewBox="0,0,213.5767,146.46064"><defs><radialGradient cx="326.90881" cy="225.02466" r="4.56981" gradientUnits="userSpaceOnUse" id="color-1"><stop offset="0" stop-color="#d9d1c4"/><stop offset="1" stop-color="#c4b7a5"/></radialGradient><radialGradient cx="311.00389" cy="214.85728" r="13.57506" gradientUnits="userSpaceOnUse" id="color-2"><stop offset="0" stop-color="#d9d1c4"/><stop offset="1" stop-color="#c4b7a5"/></radialGradient><radialGradient cx="156.49999" cy="178.89398" r="12.61608" gradientUnits="userSpaceOnUse" id="color-3"><stop offset="0" stop-color="#d9d1c4"/><stop offset="1" stop-color="#c4b7a5"/></radialGradient><radialGradient cx="159.80631" cy="190.26278" r="4.90652" gradientUnits="userSpaceOnUse" id="color-4"><stop offset="0" stop-color="#d9d1c4"/><stop offset="1" stop-color="#c4b7a5"/></radialGradient><radialGradient cx="268.99723" cy="191.85258" r="5.2242" gradientUnits="userSpaceOnUse" id="color-5"><stop offset="0" stop-color="#d9d1c4"/><stop offset="1" stop-color="#c4b7a5"/></radialGradient><radialGradient cx="253.2854" cy="190.81652" r="12.17252" gradientUnits="userSpaceOnUse" id="color-6"><stop offset="0" stop-color="#d9d1c4"/><stop offset="1" stop-color="#c4b7a5"/></radialGradient><linearGradient x1="276.95132" y1="163.27546" x2="289.15164" y2="167.57828" gradientUnits="userSpaceOnUse" id="color-7"><stop offset="0" stop-color="#e5876f"/><stop offset="1" stop-color="#b66b4d"/></linearGradient><linearGradient x1="286.99843" y1="144.63817" x2="302.81697" y2="149.29062" gradientUnits="userSpaceOnUse" id="color-8"><stop offset="0" stop-color="#b66b4d"/><stop offset="1" stop-color="#e5876f"/></linearGradient><linearGradient x1="305.76141" y1="151.90069" x2="327.19712" y2="158.20523" gradientUnits="userSpaceOnUse" id="color-9"><stop offset="0" stop-color="#dd8a73"/><stop offset="1" stop-color="#e5876f"/></linearGradient><radialGradient cx="297.36967" cy="160.49672" r="20.5766" gradientUnits="userSpaceOnUse" id="color-10"><stop offset="0" stop-color="#679382"/><stop offset="1" stop-color="#497464"/></radialGradient><linearGradient x1="293.19792" y1="144.53181" x2="311.27718" y2="149.84917" gradientUnits="userSpaceOnUse" id="color-11"><stop offset="0" stop-color="#b66b4d"/><stop offset="1" stop-color="#e5876f"/></linearGradient><linearGradient x1="306.14661" y1="160.09462" x2="309.99514" y2="176.12771" gradientUnits="userSpaceOnUse" id="color-12"><stop offset="0" stop-color="#b66b4d"/><stop offset="1" stop-color="#e5876f"/></linearGradient><radialGradient cx="150.62468" cy="181.5677" r="11.06211" gradientUnits="userSpaceOnUse" id="color-13"><stop offset="0" stop-color="#d9d1c4"/><stop offset="1" stop-color="#c4b7a5"/></radialGradient><radialGradient cx="182.68113" cy="125.86364" r="4.54371" gradientUnits="userSpaceOnUse" id="color-14"><stop offset="0" stop-color="#d9d1c4"/><stop offset="1" stop-color="#c4b7a5"/></radialGradient><radialGradient cx="196.03247" cy="127.55681" r="11.31423" gradientUnits="userSpaceOnUse" id="color-15"><stop offset="0" stop-color="#d9d1c4"/><stop offset="1" stop-color="#c4b7a5"/></radialGradient><radialGradient cx="225.96959" cy="198.11544" r="4.6317" gradientUnits="userSpaceOnUse" id="color-16"><stop offset="0" stop-color="#d9d1c4"/><stop offset="1" stop-color="#c4b7a5"/></radialGradient><radialGradient cx="213.85715" cy="204.5178" r="11.25614" gradientUnits="userSpaceOnUse" id="color-17"><stop offset="0" stop-color="#d9d1c4"/><stop offset="1" stop-color="#c4b7a5"/></radialGradient><linearGradient x1="215.68859" y1="230.97568" x2="231.56774" y2="230.97568" gradientUnits="userSpaceOnUse" id="color-18"><stop offset="0" stop-color="#e05725"/><stop offset="1" stop-color="#9c6a3f"/></linearGradient></defs><g transform="translate(-136.87544,-120.0177)"><g data-paper-data="{&quot;isPaintingLayer&quot;:true}" fill-rule="nonzero" stroke-linejoin="miter" stroke-miterlimit="10" stroke-dasharray="" stroke-dashoffset="0" style="mix-blend-mode: normal"><g fill="none" stroke="#e05725" stroke-width="5" stroke-linecap="round"><path d="M322.57454,227.39047l10,-24"/><path d="M334.77456,221.59047l-6.6,-4.8"/><path d="M340.37456,207.19047l-8,24.2"/></g><path d="M291.77454,201.79047l-8.2,-3.6" fill="none" stroke="#e05725" stroke-width="5" stroke-linecap="round"/><path d="M276.17455,212.59047l12.6,-24.4l9,3.2" fill="none" stroke="#e05725" stroke-width="5" stroke-linecap="round"/><path d="M292.57454,217.19047l14,-24.6" fill="none" stroke="#e05725" stroke-width="5" stroke-linecap="round"/><g stroke-linecap="butt"><path d="M328.01899,229.48237l-5.59281,-8.98105l9.13318,0.42055z" fill="url(#color-1)" stroke="#7f726d" stroke-width="2.5"/><path d="M324.10892,221.61024c-1.72834,3.35406 -8.99673,3.04968 -16.23445,-0.67988c-7.23771,-3.72955 -11.70396,-9.47197 -9.97562,-12.82603c1.72834,-3.35406 8.99674,-3.04967 16.23446,0.67988c7.23771,3.72955 11.70395,9.47196 9.97562,12.82602z" fill="url(#color-2)" stroke="#7f726d" stroke-width="2.5"/><path d="M301.9267,210.66202c0.01344,-0.69022 0.58387,-1.23888 1.27409,-1.22545c0.69022,0.01343 1.23887,0.58386 1.22544,1.27409c-0.01344,0.69022 -0.58387,1.23888 -1.27409,1.22545c-0.69022,-0.01343 -1.23887,-0.58386 -1.22544,-1.27409z" fill="#000000" stroke="none" stroke-width="0.5"/></g><path d="M162.56531,190.18913c-2.76692,2.70001 -9.47195,-6.81341 -15.51483,-13.00604c-6.04288,-6.19263 3.64369,-15.97024 9.68657,-9.7776c6.04288,6.19263 8.59518,20.08364 5.82826,22.78365z" fill="url(#color-3)" stroke="#7f726d" stroke-width="2.5" stroke-linecap="butt"/><path d="M159.98824,184.93791l6.32566,6.60135l-10.44313,1.69701z" data-paper-data="{&quot;index&quot;:null}" fill="url(#color-4)" stroke="#7f726d" stroke-width="2.5" stroke-linecap="butt"/><path d="M271.37456,208.19047l-6.6,-1.2l0.8,-26.8" fill="none" stroke="#9c6a3f" stroke-width="5" stroke-linecap="round"/><path d="M230.97456,208.19047l-0.8,-26l11,2l-6.33333,11.73333l-3.26667,-0.73333l2.2,0.26667l7.4,14.93333" fill="none" stroke="#716745" stroke-width="5" stroke-linecap="round"/><path d="M250.62456,180.74047l-3.8,29.6" fill="none" stroke="#9c6a3f" stroke-width="5" stroke-linecap="round"/><g stroke-linecap="butt"><path d="M270.47991,185.35213l3.00753,10.14365l-8.69371,-2.8304z" fill="url(#color-5)" stroke="#7f726d" stroke-width="2.5"/><path d="M266.99555,192.4598c-0.42785,3.56961 -6.91294,5.72762 -14.48484,4.82005c-7.57191,-0.90757 -13.3633,-4.53705 -12.93545,-8.10666c0.42785,-3.56961 6.91295,-5.72763 14.48485,-4.82005c7.57191,0.90757 13.36329,4.53705 12.93544,8.10666z" fill="url(#color-6)" stroke="#7f726d" stroke-width="2.5"/><path d="M242.8714,190.42663c-0.29791,-0.62277 -0.03455,-1.36913 0.58821,-1.66704c0.62276,-0.29791 1.36912,-0.03457 1.66704,0.5882c0.29791,0.62277 0.03456,1.36913 -0.5882,1.66704c-0.62276,0.29791 -1.36913,0.03456 -1.66704,-0.58821z" fill="#000000" stroke="none" stroke-width="0.5"/></g><path d="M186.47456,136.29047c0,0 -13.06254,40.94832 -37.2,41c-10.90995,0.02336 -9.6,-10 -9.6,-10" fill="none" stroke="#000000" stroke-width="5.5" stroke-linecap="round"/><path d="M175.27456,140.89047c0,0 -7.05988,14.2776 -15,13.8c-7.94012,-0.4776 -9.47031,-8.18078 -6.2,-14c3.27031,-5.81922 10.97316,-9.68935 19.8,-10.2c8.82684,-0.51064 15.40303,6.56467 26,7.6c10.59697,1.03534 8.8,-4.2 8.8,-4.2" fill="none" stroke="#000000" stroke-width="5.5" stroke-linecap="round"/><path d="M224.27456,169.29046c0,0 -0.80706,5.89924 -10.3732,6.92447c-4.9239,0.52771 -7.48777,-3.28212 -6.27074,-6.93909c0.89146,-2.67866 4.3238,-6.768 5.36905,-7.1461c5.4226,-1.96151 6.94591,3.51922 5.7804,4.68505c-5.23432,5.23577 -9.83227,3.21267 -12.86611,4.56413c-6.19932,2.76155 -10.4486,6.28116 -11.6394,3.71155c-2.25492,-4.86586 7.25874,-6.76862 4.4,-10.4c-2.85874,-3.63138 -8.8,1.2 -8.8,1.2l20.2,-24l-30.2,34.4" fill="none" stroke="#000000" stroke-width="5" stroke-linecap="round"/><path d="M159.37454,238.99047l-13.8,-30.2l7.2,-3.2l12.25,19.6l-2.85,-22.4l5.99511,-3.57598l9.30489,31.67598" fill="none" stroke="#2f6252" stroke-width="5" stroke-linecap="round"/><path d="M187.77456,226.59047l-11.4,-30" fill="none" stroke="#2f6252" stroke-width="5" stroke-linecap="round"/><path d="M197.92456,223.59047l-11.65,-26.45l19.05,12.8l-9.6,-24.35" fill="none" stroke="#2f6252" stroke-width="5" stroke-linecap="round"/><path d="M250.37456,179.99047l6,1.6l2.6,29.2" fill="none" stroke="#9c6a3f" stroke-width="5" stroke-linecap="round"/><path d="M249.97456,200.39047h7.8" fill="none" stroke="#9c6a3f" stroke-width="5" stroke-linecap="round"/><path d="M304.37456,219.79047l4.8,5l6,-3.8l-0.4,-7.2l-2.4,-12.8l5.2,-2l3.8,10.8" fill="none" stroke="#e05725" stroke-width="5" stroke-linecap="round"/><path d="M289.08239,167.77273c-0.56773,1.45956 -3.72809,1.59248 -7.05887,0.2969c-3.33079,-1.29558 -5.57067,-3.52906 -5.00295,-4.98862c0.56773,-1.45956 3.72809,-1.59248 7.05887,-0.2969c3.33079,1.29558 5.57067,3.52907 5.00295,4.98862z" fill="url(#color-7)" stroke="#663725" stroke-width="2.5" stroke-linecap="butt"/><path d="M304.25385,143.31376c0.7305,1.87019 -2.86172,5.02073 -8.02346,7.0369c-5.16174,2.01617 -9.93833,2.13453 -10.66884,0.26433c-0.7305,-1.87019 2.86172,-5.02073 8.02346,-7.0369c5.16174,-2.01617 9.93833,-2.13453 10.66884,-0.26433z" fill="url(#color-8)" stroke="#663725" stroke-width="2.5" stroke-linecap="butt"/><path d="M327.69401,150.92512c2.19727,5.46474 -2.17501,8.66877 -7.43841,12.12538c-4.12849,2.71129 -8.39569,-0.15151 -10.24166,-3.53577c-1.84598,-3.38426 -7.33619,-5.70623 -3.00011,-8.07139c4.33608,-2.36515 18.18435,-6.72551 20.68018,-0.51823z" fill="url(#color-9)" stroke="#924a31" stroke-width="2.5" stroke-linecap="butt"/><path d="M316.74089,167.55825c-2.09615,7.12699 -17.89384,6.02964 -28.79621,2.8231c-7.73502,-2.27497 4.39355,-5.04152 -4.35681,-10.66061c-1.36544,-0.87682 -6.93695,-1.70386 -6.32797,-3.7744c2.09615,-7.12699 12.63353,-10.30515 23.53591,-7.09861c10.90238,3.20654 18.04124,11.58352 15.94509,18.71052z" fill="url(#color-10)" stroke="#293a34" stroke-width="2.5" stroke-linecap="butt"/><path d="M291.52668,150.21413c0,0 16.44181,-7.1388 18.3905,-6.86882c7.40086,1.02536 -3.88158,11.13609 -3.88158,11.13609z" fill="url(#color-11)" stroke="#663725" stroke-width="2.5" stroke-linecap="butt"/><path d="M315.89312,174.39528c-1.25747,1.56526 -5.77899,0.02065 -10.09909,-3.44998c-4.3201,-3.47063 -6.80285,-7.553 -5.54538,-9.11826c1.25747,-1.56526 5.77899,-0.02065 10.09909,3.44998c4.3201,3.47063 6.80285,7.553 5.54538,9.11826z" fill="url(#color-12)" stroke="#663725" stroke-width="2.5" stroke-linecap="butt"/><path d="M282.38888,153.96859c0.23794,-0.80901 1.08666,-1.27196 1.89568,-1.03402c0.80901,0.23794 1.27196,1.08666 1.03402,1.89568c-0.23794,0.80901 -1.08666,1.27196 -1.89568,1.03402c-0.80901,-0.23794 -1.27196,-1.08666 -1.03402,-1.89568z" fill="#000000" stroke="none" stroke-width="0" stroke-linecap="butt"/><path d="M157.6478,168.34668c0,0 0.62006,24.98633 -5.13999,27.20607c-3.94198,1.51911 -12.58471,-7.57982 -7.7146,-24.06095" data-paper-data="{&quot;index&quot;:null}" fill="url(#color-13)" stroke="#7f726d" stroke-width="2.5" stroke-linecap="round"/><path d="M149.65945,190.59048c0,-0.69036 0.55965,-1.25 1.25,-1.25c0.69035,0 1.25,0.55964 1.25,1.25c0,0.69036 -0.55965,1.25 -1.25,1.25c-0.69035,0 -1.25,-0.55964 -1.25,-1.25z" fill="#000000" stroke="none" stroke-width="0.5" stroke-linecap="butt"/><g data-paper-data="{&quot;index&quot;:null}" stroke-linecap="butt"><path d="M179.78666,131.5688l-1.82786,-8.95828l9.73789,4.13669z" fill="url(#color-14)" stroke="#7f726d" stroke-width="2.5"/><path d="M207.61224,126.6054c0.82203,2.55347 0.3408,6.94392 -3.78982,8.27368c-4.13062,1.32975 -17.4726,-2.06243 -18.29463,-4.6159c-0.82203,-2.55347 -4.62525,-7.66573 -0.49463,-8.99548c4.13062,-1.32975 21.75706,2.78424 22.57908,5.3377z" fill="url(#color-15)" stroke="#7f726d" stroke-width="2.5"/><path d="M204.08743,130.53535c-0.65714,0.21155 -1.36136,-0.14967 -1.57291,-0.80682c-0.21155,-0.65715 0.14968,-1.36136 0.80682,-1.57291c0.65714,-0.21155 1.36136,0.14967 1.57291,0.80682c0.21155,0.65715 -0.14968,1.36136 -0.80682,1.57291z" fill="#000000" stroke="none" stroke-width="0.5"/></g><g stroke-linecap="butt"><path d="M221.33791,202.441l6.09074,-8.65111l3.17265,8.57474z" fill="url(#color-16)" stroke="#7f726d" stroke-width="2.5"/><path d="M224.9404,200.30433c1.07941,2.83931 -3.00771,7.02747 -9.12882,9.3545c-6.12111,2.32704 -11.95829,1.91175 -13.03769,-0.92756c-1.07941,-2.83931 3.00771,-7.02746 9.12882,-9.35449c6.12111,-2.32703 11.95829,-1.91176 13.0377,0.92755z" fill="url(#color-17)" stroke="#7f726d" stroke-width="2.5"/><path d="M205.91667,206.89282c0,-0.69036 0.55965,-1.25 1.25,-1.25c0.69035,0 1.25,0.55965 1.25,1.25c0,0.69036 -0.55965,1.25 -1.25,1.25c-0.69035,0 -1.25,-0.55964 -1.25,-1.25z" fill="#000000" stroke="none" stroke-width="0.5"/></g><path d="M222.97456,209.59047l-6.2,3.6l-8.6,-25.6l6.2,-2.2" fill="none" stroke="#2f6252" stroke-width="5" stroke-linecap="round"/><path d="M217.77456,194.59047l-5.4,6.2" fill="none" stroke="#2f6252" stroke-width="5" stroke-linecap="round"/><path d="M343.53243,213.95363c0,-1.91082 1.54903,-3.45986 3.45986,-3.45986c1.91082,0 3.45986,1.54904 3.45986,3.45986c0,1.91082 -1.54904,3.45986 -3.45986,3.45986c-1.91082,0 -3.45986,-1.54903 -3.45986,-3.45986z" fill="#9c6a3f" stroke="none" stroke-width="0.5" stroke-linecap="butt"/><path d="M341.59088,226.57374c0,-1.91082 1.54903,-3.45986 3.45986,-3.45986c1.91082,0 3.45986,1.54904 3.45986,3.45986c0,1.91082 -1.54904,3.45986 -3.45986,3.45986c-1.91082,0 -3.45986,-1.54903 -3.45986,-3.45986z" fill="#9c6a3f" stroke="none" stroke-width="0.5" stroke-linecap="butt"/><path d="M161.47994,243.18905l19.29698,-7.13831" fill="none" stroke="#e05725" stroke-width="5" stroke-linecap="round"/><path d="M171.53988,240.98775l-3.0289,17.93311" fill="none" stroke="#e05725" stroke-width="5" stroke-linecap="round"/><path d="M180.47139,242.3956l-4.7109,14.96145" fill="none" stroke="#e05725" stroke-width="5" stroke-linecap="round"/><path d="M178.12818,251.1011l6.68712,-3.51613l1.09949,8.04396" fill="none" stroke="#e05725" stroke-width="5" stroke-linecap="round"/><path d="M192.16082,244.1227l8.85599,-6.84637l-5.87054,-3.39234l-5.7041,4.67442l4.78996,10.45898l12.64735,-4.42892" fill="none" stroke="#e05725" stroke-width="5" stroke-linecap="round"/><path d="M217.1867,243.88306l-1.49812,-25.81476l15.87915,2.19903l-13.87947,9.12199l13.0446,13.27989" fill="none" stroke="url(#color-18)" stroke-width="5" stroke-linecap="round"/><path d="M241.66254,220.71905l-6.35406,14.46098l10.95529,0.65732z" fill="none" stroke="#9c6a3f" stroke-width="5" stroke-linecap="round"/><path d="M255.41347,216.31388l-3.9439,24.53984h4.38211" fill="none" stroke="#716745" stroke-width="5" stroke-linecap="round"/><path d="M260.78801,232.08486l11.2736,0.45703l-2.13284,-7.92199l-6.70322,-1.82815l-3.19927,11.57829l2.89457,5.48445h6.85557" fill="none" stroke="#716745" stroke-width="5" stroke-linecap="round"/><path d="M277.63877,242.63495l5.71113,-23.73649l8.71329,4.34343l-12.31883,11.5034" fill="none" stroke="#2f6252" stroke-width="5" stroke-linecap="round"/><path d="M298.83213,227.41547l-10.39486,17.69864l5.26948,2.39726" fill="none" stroke="#2f6252" stroke-width="5" stroke-linecap="round"/><path d="M311.57184,246.66922l-4.16902,-7.40396l-7.42377,4.25531l4.33837,6.97946l8.32699,-6.51932l-2.58493,9.63018" fill="none" stroke="#2f6252" stroke-width="5" stroke-linecap="round"/><path d="M321.70604,235.69627l4.22189,13.03606" fill="none" stroke="#2f6252" stroke-width="5" stroke-linecap="round"/><path d="M334.92058,238.79275l-19.44476,25.1856" fill="none" stroke="#2f6252" stroke-width="5" stroke-linecap="round"/></g></g></svg>
